<?xml version="1.0" encoding="UTF-8"?>
<svg width="44px" height="44px" viewBox="0 0 44 44" version="1.1" xmlns="http://www.w3.org/2000/svg" xmlns:xlink="http://www.w3.org/1999/xlink">
    <!-- Generator: Sketch 50 (54983) - http://www.bohemiancoding.com/sketch -->
    <title>instagram</title>
    <desc>Created with Sketch.</desc>
    <defs></defs>
    <g id="sabso" stroke="none" stroke-width="1" fill="none" fill-rule="evenodd">
        <g id="Desktop-HD-Copy" transform="translate(-273.000000, -4871.000000)">
            <g id="contact" transform="translate(-5.000000, 4307.000000)">
                <g id="instagram" transform="translate(278.000000, 564.000000)">
                    <circle id="Oval-3-Copy" fill="#FFFFFF" cx="22" cy="22" r="22"></circle>
                    <g id="np_instagram_304156_00134A" transform="translate(11.000000, 11.000000)" fill="#00134A" fill-rule="nonzero">
                        <path d="M18.3333333,0 L3.66666667,0 C1.63758222,0 0,1.71201778 0,3.83333333 L0,19.1666667 C0,21.2879822 1.63758222,23 3.66666667,23 L18.3333333,23 C20.3624178,23 22,21.2879822 22,19.1666667 L22,3.83333333 C22,1.71201778 20.3624178,0 18.3333333,0 Z M19.5555556,19.1666667 C19.5555556,19.8824267 19.0179733,20.4444444 18.3333333,20.4444444 L3.66666667,20.4444444 C2.98202667,20.4444444 2.44444444,19.8824267 2.44444444,19.1666667 L2.44444444,10.2222222 L6.28197778,10.2222222 C6.18458133,10.63152 6.11105733,11.06576 6.11105733,11.5 C6.11105733,14.3111111 8.31105733,16.6111111 10.9999462,16.6111111 C13.6888351,16.6111111 15.8888351,14.3111111 15.8888351,11.5 C15.8888351,11.06576 15.8401369,10.63152 15.7179147,10.2222222 L19.5555556,10.2222222 L19.5555556,19.1666667 Z M8.55555556,11.5 C8.55555556,10.0944444 9.65555556,8.94444444 11,8.94444444 C12.3444444,8.94444444 13.4444444,10.0944444 13.4444444,11.5 C13.4444444,12.9055556 12.3444444,14.0555556 11,14.0555556 C9.65555556,14.0555556 8.55555556,12.9055556 8.55555556,11.5 Z M19.5555556,7.66666667 L14.2264222,7.66666667 C13.3708667,6.87403556 12.2460311,6.38888889 11,6.38888889 C9.75294222,6.38888889 8.62908444,6.87403556 7.77357778,7.66666667 L2.44444444,7.66666667 L2.44444444,3.83333333 C2.44444444,3.11757333 2.98202667,2.55555556 3.66666667,2.55555556 L18.3333333,2.55555556 C19.0179733,2.55555556 19.5555556,3.11757333 19.5555556,3.83333333 L19.5555556,7.66666667 Z" id="Shape"></path>
                        <polygon id="Shape" points="15.5833333 3.68 17.4166667 3.68 17.4166667 5.52 15.5833333 5.52"></polygon>
                    </g>
                </g>
            </g>
        </g>
    </g>
</svg>