<?xml version="1.0" encoding="UTF-8"?>
<svg width="44px" height="44px" viewBox="0 0 44 44" version="1.1" xmlns="http://www.w3.org/2000/svg" xmlns:xlink="http://www.w3.org/1999/xlink">
    <!-- Generator: Sketch 50 (54983) - http://www.bohemiancoding.com/sketch -->
    <title>twitter</title>
    <desc>Created with Sketch.</desc>
    <defs></defs>
    <g id="sabso" stroke="none" stroke-width="1" fill="none" fill-rule="evenodd">
        <g id="Desktop-HD-Copy" transform="translate(-388.000000, -4871.000000)">
            <g id="contact" transform="translate(-5.000000, 4307.000000)">
                <g id="twitter" transform="translate(393.000000, 564.000000)">
                    <circle id="Oval-3-Copy-3" fill="#FFFFFF" cx="22" cy="22" r="22"></circle>
                    <g id="np_twitter_20940_00134A" transform="translate(9.000000, 13.000000)" fill="#00134A" fill-rule="nonzero">
                        <path d="M25.3002949,2.40139133 C25.4928035,1.77156854 25.2726289,1.08941482 24.7377664,0.67991178 C24.4346053,0.446228694 24.0668753,0.328266181 23.6945122,0.328266181 C23.4005614,0.328266181 23.1066046,0.402822796 22.8426334,0.554160875 C22.3181439,0.851282035 21.7705771,1.08940627 21.1976608,1.25745207 C20.1037077,0.449584482 18.7469048,0 17.3521514,0 C14.1555772,0 11.5076027,2.3012219 11.0903246,5.27781758 C8.54159384,4.75146018 6.21991659,3.39609771 4.54726312,1.4152425 C4.22911074,1.03579342 3.7507165,0.818778177 3.2515764,0.818778177 C3.21007878,0.818778177 3.16511958,0.822116303 3.12016333,0.824342005 C2.57259655,0.865514509 2.08269323,1.16373812 1.80603256,1.6210996 C1.24465488,2.55026555 0.948399271,3.60964635 0.948399271,4.69002219 C0.948399271,5.41889486 1.08211711,6.12885206 1.32996965,6.79095081 C1.06368487,7.08359949 0.908058457,7.46307705 0.908058457,7.8647746 C0.908058457,9.46495579 1.53400505,10.9359762 2.57607878,12.0409934 C2.51152463,12.3169628 2.52190051,12.6085148 2.61527164,12.8878314 C2.97609616,13.9783487 3.6354486,14.9164311 4.48965868,15.6330543 C3.93518645,15.754347 3.36227018,15.8166627 2.78011713,15.8166627 C2.47810697,15.8166627 2.17376549,15.7977455 1.86597128,15.7643631 C1.80141713,15.7565736 1.73570911,15.7521224 1.67000405,15.7521224 C0.970281284,15.7521224 0.336278336,16.174986 0.0988075796,16.8259462 C-0.165172432,17.5325704 0.113793292,18.3226335 0.768547708,18.7288036 C3.17087707,20.2143524 5.94793039,21 8.796281,21 C18.0357142,21 23.5884043,13.8215186 23.6887399,6.81424505 C24.4403421,6.19553226 25.1020259,5.48446406 25.6622527,4.68995695 C25.8743592,4.41955106 26,4.08460464 26,3.71737656 C25.9988473,3.17546516 25.7233393,2.69585521 25.3002772,2.40095605 L25.3002949,2.40139133 Z M22.0022048,6.03920266 C22.0125795,6.23171324 22.0171905,6.42534622 22.0171905,6.6189735 C22.0171905,12.5468682 17.3427319,19.3815095 8.79620457,19.3815095 C6.17254668,19.3815095 3.72984699,18.6392764 1.67208188,17.3662703 C2.03405731,17.405218 2.40524001,17.4296998 2.78102634,17.4296998 C4.95857445,17.4296998 6.96088939,16.7119656 8.55297927,15.507927 C6.51722897,15.4734319 4.80308378,14.174813 4.21051354,12.3931401 C4.49409145,12.4454397 4.78573163,12.4743741 5.08313815,12.4743741 C5.50850207,12.4743741 5.91887467,12.4187358 6.30735051,12.3163586 C4.18168181,11.9024116 2.57929277,10.0919096 2.57929277,7.91651556 L2.57929277,7.86087727 C3.20639027,8.19582939 3.92340617,8.39723367 4.68421561,8.42059315 C3.43807697,7.61605855 2.61848267,6.2417806 2.61848267,4.68621032 C2.61848267,3.86498225 2.84787936,3.09494561 3.24788199,2.43281837 C5.53839618,5.14687631 8.96317481,6.93179678 12.824915,7.1186726 C12.7442216,6.79152597 12.7061826,6.44765737 12.7061826,6.09604025 C12.7061826,3.62121755 14.7857559,1.61272979 17.3505404,1.61272979 C18.6877188,1.61272979 19.8958185,2.15689167 20.7430641,3.02706069 C21.8001292,2.82676172 22.7961075,2.45398434 23.6929602,1.93987642 C23.3448252,2.98700774 22.6082144,3.86609325 21.650275,4.42025412 C22.5897703,4.31342724 23.4831408,4.07194152 24.3177559,3.71362992 C23.696413,4.6172144 22.910254,5.40727751 22.0018627,6.03935079 L22.0022048,6.03920266 Z" id="Shape"></path>
                    </g>
                </g>
            </g>
        </g>
    </g>
</svg>