<?xml version="1.0" encoding="UTF-8"?>
<svg width="44px" height="44px" viewBox="0 0 44 44" version="1.1" xmlns="http://www.w3.org/2000/svg" xmlns:xlink="http://www.w3.org/1999/xlink">
    <!-- Generator: Sketch 50 (54983) - http://www.bohemiancoding.com/sketch -->
    <title>youtube</title>
    <desc>Created with Sketch.</desc>
    <defs></defs>
    <g id="sabso" stroke="none" stroke-width="1" fill="none" fill-rule="evenodd">
        <g id="Desktop-HD-Copy" transform="translate(-330.000000, -4871.000000)">
            <g id="contact" transform="translate(-5.000000, 4307.000000)">
                <g id="youtube" transform="translate(335.000000, 564.000000)">
                    <circle id="Oval-3-Copy-2" fill="#FFFFFF" cx="22" cy="22" r="22"></circle>
                    <g id="np_youtube_897675_00134A" transform="translate(9.000000, 14.000000)" fill="#00134A" fill-rule="nonzero">
                        <path d="M21.6,0 L4.4,0 C1.97032,0 0,1.97032 0,4.4 L0,13.6 C0,16.02968 1.97032,18 4.4,18 L21.6,18 C24.02968,18 26,16.02968 26,13.6 L26,4.4 C26,1.97032 24.02968,0 21.6,0 Z M18.27656,9.5312 L10.47656,13.5312 C10.290624,13.628076 10.0672,13.620264 9.88904,13.51245 C9.709352,13.403074 9.599976,13.209326 9.599976,12.99997 L9.599976,4.99997 C9.599976,4.790594 9.709352,4.59685 9.88904,4.48749 C10.067164,4.379678 10.2906,4.371866 10.47656,4.46874 L18.27656,8.46874 C18.47656,8.570304 18.603124,8.776552 18.603124,9.00154 C18.603124,9.226528 18.47656,9.43278 18.27656,9.5359 L18.27656,9.5312 Z" id="Shape"></path>
                    </g>
                </g>
            </g>
        </g>
    </g>
</svg>